<svg width="10" height="10" viewBox="0 0 10 10" fill="none" xmlns="http://www.w3.org/2000/svg">
<g clip-path="url(#clip0)">
<path d="M0.601062 5.70244C0.641979 5.70908 0.683389 5.71214 0.72482 5.7116L7.77961 5.7116L7.62578 5.78315C7.47542 5.85432 7.33862 5.95118 7.22153 6.06935L5.24319 8.0477C4.98264 8.29642 4.93886 8.69654 5.13944 8.99573C5.37289 9.31455 5.82059 9.38377 6.13943 9.15032C6.16519 9.13145 6.18967 9.11088 6.21268 9.08874L9.79015 5.51127C10.0697 5.232 10.07 4.77898 9.79071 4.4994C9.79053 4.49922 9.79033 4.49902 9.79015 4.49884L6.21268 0.921366C5.93288 0.642344 5.47986 0.64297 5.20082 0.922773C5.17886 0.944798 5.15836 0.96823 5.13944 0.992914C4.93886 1.2921 4.98264 1.69222 5.24319 1.94095L7.21795 3.92287C7.32293 4.02796 7.44362 4.11607 7.5757 4.18402L7.79035 4.28061L0.764194 4.28061C0.398689 4.26704 0.0780134 4.52236 0.00934792 4.88163C-0.0539064 5.27169 0.211006 5.63916 0.601062 5.70244Z" fill="#14121F"/>
</g>
<defs>
<clipPath id="clip0">
<rect width="10" height="10" fill="white" transform="translate(10 10.0005) rotate(-180)"/>
</clipPath>
</defs>
</svg>
