<svg width="14" height="14" viewBox="0 0 14 14" fill="none" xmlns="http://www.w3.org/2000/svg">
<path d="M13.1585 6.0173C13.1012 6.008 13.0433 6.00371 12.9853 6.00446H3.10854L3.3239 5.90429C3.53442 5.80466 3.72593 5.66905 3.88986 5.50361L6.65954 2.73393C7.02431 2.38572 7.0856 1.82555 6.80478 1.40669C6.47795 0.960342 5.85117 0.863428 5.40479 1.19026C5.36873 1.21668 5.33446 1.24548 5.30225 1.27647L0.293785 6.28494C-0.0976257 6.67591 -0.09797 7.31014 0.293003 7.70155C0.293253 7.7018 0.293535 7.70208 0.293785 7.70233L5.30225 12.7108C5.69397 13.1014 6.3282 13.1005 6.71886 12.7088C6.7496 12.678 6.7783 12.6452 6.80478 12.6106C7.0856 12.1918 7.02431 11.6316 6.65954 11.2834L3.89487 8.50869C3.7479 8.36157 3.57893 8.23821 3.39402 8.14308L3.09351 8.00785H12.9301C13.4418 8.02685 13.8908 7.6694 13.9869 7.16643C14.0755 6.62035 13.7046 6.10588 13.1585 6.0173Z" fill="#92969D"/>
</svg>
