<svg width="14" height="12" viewBox="0 0 14 12" fill="none" xmlns="http://www.w3.org/2000/svg">
<path d="M0.605674 5.39474C0.27174 5.39474 0 5.66648 0 6.00045C0 6.334 0.271526 6.60574 0.605674 6.60574H3.15543V5.39474H0.605674Z" fill="#B7BCC6"/>
<path d="M11.9818 0.578094H5.174C4.0609 0.578094 3.15531 1.48325 3.15531 2.59614V2.6593V5.39449H8.6104L7.44378 4.22776C7.20802 3.99157 7.20802 3.60739 7.44378 3.37131C7.55814 3.25695 7.70995 3.1939 7.87164 3.1939C8.03394 3.1939 8.18578 3.25698 8.30033 3.37131L10.5008 5.57191C10.5561 5.62693 10.5997 5.69216 10.631 5.76601C10.6633 5.84554 10.6783 5.92232 10.6783 6.00038C10.6783 6.07823 10.6635 6.15511 10.6333 6.22872C10.601 6.3065 10.5573 6.37137 10.5025 6.42725L8.30029 8.62902C8.18528 8.74335 8.03304 8.80611 7.8716 8.80611C7.71013 8.80611 7.55743 8.74335 7.44353 8.62902C7.20777 8.39237 7.20777 8.00822 7.44353 7.77225L8.61037 6.60562H3.15527V7.26793V8.48405V9.40423C3.15527 10.5166 4.0609 11.4218 5.17396 11.4218H11.9818C13.0949 11.4218 13.9998 10.5166 13.9998 9.40423V2.59639C13.9998 1.48325 13.0949 0.578094 11.9818 0.578094Z" fill="#B7BCC6"/>
</svg>
