<svg width="10" height="10" viewBox="0 0 10 10" fill="none" xmlns="http://www.w3.org/2000/svg">
<path d="M9.39894 4.29811C9.35802 4.29147 9.31661 4.28841 9.27518 4.28894H2.22039L2.37422 4.2174C2.52458 4.14623 2.66138 4.04937 2.77847 3.9312L4.75681 1.95285C5.01736 1.70413 5.06114 1.30401 4.86056 1.00482C4.62711 0.686002 4.17941 0.616778 3.86057 0.850231C3.83481 0.869102 3.81033 0.889672 3.78732 0.911808L0.209847 4.48928C-0.0697326 4.76855 -0.0699786 5.22157 0.209288 5.50115C0.209467 5.50133 0.209668 5.50153 0.209847 5.50171L3.78732 9.07918C4.06712 9.3582 4.52014 9.35758 4.79918 9.07778C4.82114 9.05575 4.84164 9.03232 4.86056 9.00764C5.06114 8.70845 5.01736 8.30833 4.75681 8.0596L2.78205 6.07768C2.67707 5.97259 2.55638 5.88448 2.4243 5.81653L2.20965 5.71993H9.23581C9.60131 5.73351 9.92199 5.47819 9.99065 5.11892C10.0539 4.72886 9.78899 4.36139 9.39894 4.29811Z" fill="#2E60FF"/>
</svg>
