<svg width="16" height="10" viewBox="0 0 16 10" fill="none" xmlns="http://www.w3.org/2000/svg">
<path d="M8.62432 9.4464L15.7444 2.3262C15.9092 2.16151 16 1.94168 16 1.70727C16 1.47287 15.9092 1.25303 15.7444 1.08835L15.2202 0.564C14.8786 0.222799 14.3234 0.222799 13.9823 0.564L8.00332 6.54301L2.01768 0.557366C1.85286 0.392684 1.63316 0.301758 1.39888 0.301758C1.16435 0.301758 0.944643 0.392684 0.779701 0.557366L0.255608 1.08172C0.0907965 1.24653 9.53674e-07 1.46624 9.53674e-07 1.70064C9.53674e-07 1.93505 0.0907965 2.15488 0.255608 2.31956L7.38218 9.4464C7.54752 9.61147 7.76826 9.70214 8.00293 9.70162C8.2385 9.70214 8.45912 9.61147 8.62432 9.4464Z" fill="#858FA4" fill-opacity="0.5"/>
</svg>
