<svg width="10" height="16" viewBox="0 0 10 16" fill="none" xmlns="http://www.w3.org/2000/svg">
<path d="M9.4464 7.37568L2.3262 0.255608C2.16151 0.090796 1.94168 0 1.70727 0C1.47287 0 1.25303 0.090796 1.08835 0.255608L0.564 0.779831C0.222799 1.12142 0.222799 1.6766 0.564 2.01767L6.54301 7.99668L0.557366 13.9823C0.392684 14.1471 0.301758 14.3668 0.301758 14.6011C0.301758 14.8357 0.392684 15.0554 0.557366 15.2203L1.08172 15.7444C1.24653 15.9092 1.46624 16 1.70064 16C1.93505 16 2.15488 15.9092 2.31956 15.7444L9.4464 8.61782C9.61147 8.45248 9.70214 8.23174 9.70162 7.99707C9.70214 7.7615 9.61147 7.54088 9.4464 7.37568Z" fill="#858FA4" fill-opacity="0.5"/>
</svg>
