<svg width="10" height="11" viewBox="0 0 10 11" fill="none" xmlns="http://www.w3.org/2000/svg">
<g clip-path="url(#clip0)">
<path d="M0.601062 5.70326C0.641979 5.7099 0.683389 5.71297 0.72482 5.71243L7.77961 5.71243L7.62578 5.78398C7.47542 5.85515 7.33862 5.95201 7.22153 6.07018L5.24319 8.04852C4.98264 8.29724 4.93886 8.69736 5.13944 8.99655C5.37289 9.31537 5.82059 9.3846 6.13943 9.15114C6.16519 9.13227 6.18967 9.1117 6.21268 9.08957L9.79015 5.51209C10.0697 5.23282 10.07 4.7798 9.79071 4.50022C9.79053 4.50004 9.79033 4.49984 9.79015 4.49966L6.21268 0.92219C5.93288 0.643168 5.47986 0.643794 5.20082 0.923597C5.17886 0.945621 5.15836 0.969054 5.13944 0.993738C4.93886 1.29293 4.98264 1.69305 5.24319 1.94177L7.21795 3.92369C7.32293 4.02878 7.44362 4.1169 7.5757 4.18485L7.79035 4.28144L0.764194 4.28144C0.398689 4.26787 0.0780134 4.52319 0.00934792 4.88245C-0.0539064 5.27251 0.211006 5.63998 0.601062 5.70326Z" fill="#2E60FF"/>
</g>
<defs>
<clipPath id="clip0">
<rect width="10" height="10" fill="white" transform="translate(10 10.0013) rotate(-180)"/>
</clipPath>
</defs>
</svg>
