<svg width="16" height="20" viewBox="0 0 16 20" fill="none" xmlns="http://www.w3.org/2000/svg">
<path fill-rule="evenodd" clip-rule="evenodd" d="M4.05779 5.35388C4.05779 3.19393 5.82584 1.43697 7.99943 1.43697C10.173 1.43697 11.9411 3.19393 11.9411 5.35388C11.9411 7.51282 10.173 9.26978 7.99943 9.26978C5.82584 9.26978 4.05779 7.51282 4.05779 5.35388ZM2.61225 5.35387C2.61225 8.30479 5.02935 10.7067 7.99992 10.7067C10.9705 10.7067 13.3866 8.30479 13.3866 5.35387C13.3866 2.40194 10.9705 0 7.99992 0C5.02935 0 2.61225 2.40194 2.61225 5.35387ZM6.97761 19.985C7.3127 19.995 7.65384 20 8 20C11.4345 20 16 19.619 16 16.3301C16 12.6392 9.97836 12.6392 8 12.6392C4.56553 12.6392 0 13.0202 0 16.3101C0 17.2951 0.46088 18.624 2.6566 19.363C3.03597 19.493 3.44453 19.288 3.57333 18.913C3.70113 18.538 3.49887 18.131 3.1205 18.004C1.61811 17.4981 1.44503 16.7951 1.44503 16.3101C1.44503 14.8271 3.65082 14.0751 8 14.0751C12.3492 14.0751 14.555 14.8341 14.555 16.3301C14.555 17.8121 12.3492 18.563 8 18.563C7.66792 18.563 7.34088 18.559 7.01887 18.55C6.63245 18.553 6.2883 18.851 6.27723 19.247C6.26516 19.644 6.57912 19.975 6.97761 19.985Z" fill="white"/>
</svg>
