<svg width="100" height="136" viewBox="0 0 100 136" fill="none" xmlns="http://www.w3.org/2000/svg">
<path fill-rule="evenodd" clip-rule="evenodd" d="M91.9522 100.604L78.9691 58.3373C72.9828 43.4941 62.6163 38.7793 53.8003 40.3338L-17.0364 52.8242C-25.9757 54.4004 -34.491 61.9866 -34.4681 78.3393L-32.2739 122.508C-31.1184 155.018 -13.3824 160.069 7.94874 156.308L65.7771 146.111C87.0466 142.361 100.866 128.082 91.9522 100.604ZM4.40197 86.0756C0.9971 86.676 -2.26403 84.3217 -2.88196 80.8173C-3.49989 77.3128 -1.24063 73.9852 2.16424 73.3848C5.56911 72.7844 8.83024 75.1387 9.44817 78.6431C10.0661 82.1476 7.80684 85.4752 4.40197 86.0756ZM37.4977 73.6973C38.1156 77.2017 41.3767 79.556 44.7816 78.9556C48.1865 78.3552 50.4457 75.0276 49.8278 71.5231C49.2099 68.0187 45.9487 65.6644 42.5439 66.2648C39.139 66.8652 36.8797 70.1928 37.4977 73.6973Z" fill="#2E60FF"/>
<path opacity="0.4" d="M52.7374 38.898C52.8547 39.4352 52.8458 39.9923 52.7112 40.5258L42.6863 42.2935C42.4036 41.8251 42.2067 41.3101 42.105 40.7728C39.7464 27.3968 26.9537 18.4721 13.5317 20.8387C0.10961 23.2054 -8.85914 35.9673 -6.5006 49.3433C-6.31681 49.8478 -6.22288 50.3805 -6.22302 50.9175L-16.4909 52.728C-16.6747 52.2235 -16.7687 51.6907 -16.7685 51.1538C-19.2706 32.4021 -6.49145 15.0018 12.2031 11.7055C30.8977 8.4091 48.8574 20.3893 52.9197 38.8659L52.7374 38.898Z" fill="#2E60FF"/>
</svg>
