<svg width="197" height="197" viewBox="0 0 197 197" fill="none" xmlns="http://www.w3.org/2000/svg">
<g id="Iconly/Bulk/Bag" opacity="0.3">
<g id="Bag">
<path id="Combined Shape" fill-rule="evenodd" clip-rule="evenodd" d="M165.952 117.604L152.969 75.3373C146.983 60.4941 136.617 55.7793 127.801 57.3338L56.9639 69.8242C48.0245 71.4004 39.5092 78.9866 39.5321 95.3393L41.7263 139.508C42.8818 172.018 60.6178 177.069 81.949 173.308L139.777 163.111C161.047 159.361 174.866 145.082 165.952 117.604ZM78.4022 103.076C74.9973 103.676 71.7362 101.322 71.1183 97.8173C70.5004 94.3128 72.7596 90.9852 76.1645 90.3848C79.5694 89.7844 82.8305 92.1387 83.4484 95.6432C84.0664 99.1476 81.8071 102.475 78.4022 103.076ZM111.498 90.6973C112.116 94.2017 115.377 96.556 118.782 95.9556C122.187 95.3552 124.446 92.0276 123.828 88.5231C123.21 85.0187 119.949 82.6644 116.544 83.2648C113.139 83.8652 110.88 87.1928 111.498 90.6973Z" fill="white"/>
<path id="Path_34167" opacity="0.4" d="M126.737 55.898C126.855 56.4352 126.846 56.9923 126.711 57.5258L116.686 59.2935C116.404 58.8251 116.207 58.3101 116.105 57.7728C113.746 44.3968 100.954 35.4721 87.5317 37.8387C74.1096 40.2054 65.1409 52.9673 67.4994 66.3433C67.6832 66.8478 67.7771 67.3805 67.777 67.9175L57.5091 69.728C57.3253 69.2235 57.2313 68.6907 57.2315 68.1538C54.7294 49.4021 67.5086 32.0018 86.2031 28.7055C104.898 25.4091 122.857 37.3893 126.92 55.8658L126.737 55.898Z" fill="white"/>
</g>
</g>
</svg>
