<svg width="197" height="197" viewBox="0 0 197 197" fill="none" xmlns="http://www.w3.org/2000/svg">
<g id="Iconly/Bulk/Buy" opacity="0.3">
<g id="Buy">
<path id="Combined Shape" opacity="0.4" fill-rule="evenodd" clip-rule="evenodd" d="M145.032 152.032C143.999 146.173 147.906 140.593 153.765 139.56C159.555 138.539 165.135 142.446 166.168 148.305C167.189 154.095 163.282 159.675 157.492 160.696C151.633 161.729 146.053 157.822 145.032 152.032ZM66.555 165.87C65.5218 160.01 69.4289 154.43 75.2885 153.397C81.0784 152.376 86.6583 156.283 87.6915 162.143C88.7124 167.933 84.8053 173.513 79.0154 174.534C73.1558 175.567 67.5759 171.66 66.555 165.87Z" fill="#2E60FF"/>
<path id="Fill 7" fill-rule="evenodd" clip-rule="evenodd" d="M148.654 48.9744C152.91 48.2241 155.958 49.197 159.314 51.9138C162.67 54.6307 163.97 59.1485 164.079 63.4377L165.521 110.367C165.817 119.385 159.426 127.194 150.566 128.756L74.4614 142.175C65.1836 143.811 56.2557 138.049 53.866 128.983L34.04 54.0724L23.1869 54.116C20.3105 54.1197 17.8776 51.7435 17.8739 48.8672C17.8579 45.921 20.2463 43.5579 23.1802 43.4721L40.2601 43.0498C42.7069 43.0571 44.794 44.6958 45.4214 47.0307L49.502 62.4226C50.1061 64.6249 52.215 65.9793 54.4473 65.5857L148.654 48.9744ZM112.777 92.695L132.1 89.2879C135.03 88.7713 136.913 85.9936 136.409 83.1336C135.892 80.2038 133.185 78.3077 130.255 78.8243L110.932 82.2314C108.002 82.748 106.106 85.4559 106.623 88.3857C107.127 91.2457 109.847 93.2116 112.777 92.695Z" fill="#2E60FF"/>
</g>
</g>
</svg>
