<svg width="20" height="14" viewBox="0 0 20 14" fill="none" xmlns="http://www.w3.org/2000/svg">
<path d="M19.68 1.24693L19.0249 0.591811C18.819 0.385794 18.5446 0.272461 18.2515 0.272461C17.9585 0.272461 17.6839 0.385794 17.478 0.591811L8.27268 9.79701L2.5213 4.04547C2.31545 3.83978 2.04081 3.72628 1.7478 3.72628C1.45496 3.72628 1.18049 3.83978 0.974472 4.04547L0.319187 4.70043C0.113171 4.90677 0 5.18157 0 5.47425C0 5.7671 0.113171 6.04173 0.319187 6.24775L6.81285 12.7411C6.82146 12.7533 6.83057 12.7647 6.84114 12.7751L7.49642 13.4195C7.70228 13.6247 7.97691 13.7273 8.27219 13.7273H8.27561C8.56878 13.7273 8.84341 13.6247 9.04894 13.4195L9.70439 12.7694C9.71496 12.759 9.7239 12.7503 9.72927 12.7416L19.6798 2.79197C20.1067 2.36612 20.1067 1.67327 19.68 1.24693Z" fill="#4BD848"/>
</svg>
