<svg width="16" height="16" viewBox="0 0 16 16" fill="none" xmlns="http://www.w3.org/2000/svg">
<path d="M15.744 3.39768L15.2199 2.87358C15.0552 2.70877 14.8356 2.6181 14.6012 2.6181C14.3668 2.6181 14.1471 2.70877 13.9824 2.87358L6.61815 10.2377L2.01704 5.63651C1.85236 5.47196 1.63265 5.38116 1.39824 5.38116C1.16397 5.38116 0.94439 5.47196 0.779577 5.63651L0.25535 6.16048C0.0905366 6.32555 0 6.54539 0 6.77953C0 7.01381 0.0905366 7.23352 0.25535 7.39833L5.45028 12.593C5.45717 12.6028 5.46446 12.6119 5.47291 12.6202L5.99714 13.1357C6.16182 13.2999 6.38153 13.3819 6.61776 13.3819H6.62049C6.85502 13.3819 7.07473 13.2999 7.23915 13.1357L7.76351 12.6156C7.77197 12.6073 7.77912 12.6004 7.78341 12.5934L15.7439 4.63371C16.0853 4.29303 16.0853 3.73875 15.744 3.39768Z" fill="#2E60FF"/>
</svg>
