<svg width="16" height="12" viewBox="0 0 16 12" fill="none" xmlns="http://www.w3.org/2000/svg">
<path d="M15.744 1.39768L15.2199 0.873583C15.0552 0.70877 14.8356 0.618103 14.6012 0.618103C14.3668 0.618103 14.1471 0.70877 13.9824 0.873583L6.61815 8.23775L2.01704 3.63651C1.85236 3.47196 1.63265 3.38116 1.39824 3.38116C1.16397 3.38116 0.94439 3.47196 0.779577 3.63651L0.25535 4.16048C0.0905366 4.32555 0 4.54539 0 4.77953C0 5.01381 0.0905366 5.23352 0.25535 5.39833L5.45028 10.593C5.45717 10.6028 5.46446 10.6119 5.47291 10.6202L5.99714 11.1357C6.16182 11.2999 6.38153 11.3819 6.61776 11.3819H6.62049C6.85502 11.3819 7.07473 11.2999 7.23915 11.1357L7.76351 10.6156C7.77197 10.6073 7.77912 10.6004 7.78341 10.5934L15.7439 2.63371C16.0853 2.29303 16.0853 1.73875 15.744 1.39768Z" fill="#B7BCC6"/>
</svg>
