<svg width="20" height="20" viewBox="0 0 20 20" fill="none" xmlns="http://www.w3.org/2000/svg">
<g clip-path="url(#clip0)">
<path d="M10 0.000366211C4.48578 0.000366211 0 4.48615 0 10.0004C0 15.5146 4.48578 20.0004 10 20.0004C15.5142 20.0004 20 15.5146 20 10.0004C20 4.48615 15.5142 0.000366211 10 0.000366211ZM14.7559 15.1728C14.5934 15.3353 14.38 15.4171 14.1667 15.4171C13.9534 15.4171 13.7399 15.3353 13.5776 15.1728L9.41086 11.0062C9.25415 10.8504 9.16672 10.6386 9.16672 10.4171V5.00037C9.16672 4.53955 9.53995 4.16708 10 4.16708C10.4601 4.16708 10.8333 4.53955 10.8333 5.00037V10.0721L14.7559 13.9945C15.0816 14.3204 15.0816 14.847 14.7559 15.1728Z" fill="#B7BCC6"/>
</g>
<defs>
<clipPath id="clip0">
<rect width="20" height="20" fill="white" transform="translate(0 0.000366211)"/>
</clipPath>
</defs>
</svg>
