<svg width="8" height="8" viewBox="0 0 8 8" fill="none" xmlns="http://www.w3.org/2000/svg">
<g clip-path="url(#clip0)">
<path d="M7.72958 1.57571L5.30563 3.99992L7.72958 6.42401C8.09013 6.7847 8.09013 7.36896 7.72958 7.72965C7.54943 7.9098 7.31324 7.99995 7.07717 7.99995C6.8407 7.99995 6.60449 7.90994 6.42448 7.72965L4.00001 5.30529L1.57571 7.72963C1.39559 7.90978 1.15938 7.99992 0.923097 7.99992C0.686887 7.99992 0.450837 7.90992 0.270551 7.72963C-0.0899998 7.3691 -0.0899998 6.78481 0.270551 6.42399L2.69443 3.9999L0.270413 1.57571C-0.0901376 1.21516 -0.0901376 0.630757 0.270413 0.270206C0.630894 -0.0900688 1.21495 -0.0900688 1.57557 0.270206L3.99998 2.69441L6.42421 0.270206C6.7849 -0.0900688 7.36903 -0.0900688 7.72944 0.270206C8.09013 0.630757 8.09013 1.21516 7.72958 1.57571Z" fill="white"/>
</g>
<defs>
<clipPath id="clip0">
<rect width="7.99998" height="8" fill="white"/>
</clipPath>
</defs>
</svg>
