<svg width="14" height="16" viewBox="0 0 14 16" fill="none" xmlns="http://www.w3.org/2000/svg">
<path d="M7.62248 15.7442L13.4008 9.96608C13.5657 9.80114 13.6562 9.58131 13.6562 9.3469C13.6562 9.11224 13.5656 8.89253 13.4008 8.72759L12.876 8.20298C12.7113 8.03817 12.4914 7.94737 12.2568 7.94737C12.0224 7.94737 11.7951 8.03817 11.6304 8.20298L8.25207 11.5739V0.864382C8.25207 0.381525 7.87405 0 7.39107 0L6.64922 0C6.16623 0 5.7501 0.381525 5.7501 0.864382L5.7501 11.6121L2.35293 8.20311C2.18799 8.0383 1.974 7.9475 1.73947 7.9475C1.50519 7.9475 1.28809 8.0383 1.12328 8.20311L0.600227 8.72772C0.435286 8.89266 0.3454 9.11237 0.3454 9.34703C0.3454 9.58144 0.436456 9.80127 0.601398 9.96621L6.37956 15.7444C6.54502 15.9097 6.7659 16.0006 7.00069 16C7.23627 16.0005 7.45728 15.9097 7.62248 15.7442Z" fill="#FF2E2E"/>
</svg>
