<svg width="20" height="20" viewBox="0 0 20 20" fill="none" xmlns="http://www.w3.org/2000/svg">
<g id="Iconly/Bold/Filter 2">
<g id="Filter 2">
<path id="Filter 2_2" fill-rule="evenodd" clip-rule="evenodd" d="M3.44146 1.66669H16.5611C17.541 1.66669 18.3346 2.48423 18.3346 3.49357V4.76982C18.3346 5.25946 18.1433 5.72966 17.8035 6.07258L12.3827 11.5559C12.2892 11.6513 12.1622 11.7044 12.0309 11.7035L7.49208 11.6893C7.35394 11.6893 7.22267 11.6301 7.12829 11.5267L2.14673 6.04784C1.83871 5.70933 1.66797 5.26211 1.66797 4.7981V3.49445C1.66797 2.48511 2.46162 1.66669 3.44146 1.66669ZM7.73472 13.1868L11.7802 13.1992C12.0325 13.2001 12.2367 13.4113 12.2367 13.6703V15.9461C12.2367 16.206 12.0891 16.4411 11.8591 16.5498L8.18689 18.2741C8.10109 18.3139 8.01014 18.3334 7.91919 18.3334C7.79822 18.3334 7.67724 18.298 7.5717 18.2282C7.38723 18.1062 7.27569 17.8959 7.27569 17.6705V13.6579C7.27569 13.3972 7.48161 13.1859 7.73472 13.1868Z" fill="#858FA4" fill-opacity="0.5"/>
</g>
</g>
</svg>
