<svg width="18" height="18" viewBox="0 0 18 18" fill="none" xmlns="http://www.w3.org/2000/svg">
<path fill-rule="evenodd" clip-rule="evenodd" d="M10.2082 3.06683H12.7665C15.8415 3.06683 17.3415 4.7085 17.3332 8.07516V12.1335C17.3332 15.3502 15.3498 17.3335 12.1248 17.3335H5.8665C2.65817 17.3335 0.666504 15.3502 0.666504 12.1252V5.86683C0.666504 2.41683 2.19984 0.666829 5.22484 0.666829H6.5415C7.31734 0.658496 8.0415 1.01683 8.5165 1.62516L9.24984 2.60016C9.48317 2.89183 9.83317 3.06683 10.2082 3.06683ZM5.14148 11.7418H12.8582C13.1998 11.7418 13.4748 11.4585 13.4748 11.1168C13.4748 10.7668 13.1998 10.4918 12.8582 10.4918H5.14148C4.79148 10.4918 4.51648 10.7668 4.51648 11.1168C4.51648 11.4585 4.79148 11.7418 5.14148 11.7418Z" fill="#B7BCC6" fill-opacity="0.5"/>
</svg>
