<svg width="16" height="20" viewBox="0 0 16 20" fill="none" xmlns="http://www.w3.org/2000/svg">
<path d="M7.71542 0.00505983C3.74187 0.144483 0.440822 3.24459 0.0594591 7.20174C-0.0184538 7.99317 0.0266537 8.76 0.166077 9.49402C0.166077 9.49402 0.178379 9.58013 0.219386 9.74416C0.342406 10.2937 0.526936 10.8267 0.756574 11.327C1.55621 13.2215 3.40561 16.3914 7.5555 19.84C7.80974 20.0533 8.1829 20.0533 8.44124 19.84C12.5911 16.3955 14.4405 13.2256 15.2443 11.3229C15.478 10.8226 15.6584 10.2937 15.7815 9.74006C15.8184 9.58013 15.8348 9.48992 15.8348 9.48992C15.9291 8.99784 15.9783 8.49345 15.9783 7.97677C15.9783 3.47423 12.2508 -0.154866 7.71542 0.00505983ZM7.99837 11.9462C5.85782 11.9462 4.12323 10.2116 4.12323 8.07109C4.12323 5.93053 5.85782 4.19595 7.99837 4.19595C10.1389 4.19595 11.8735 5.93053 11.8735 8.07109C11.8735 10.2116 10.1389 11.9462 7.99837 11.9462Z" fill="#B7BCC6"/>
</svg>
