<svg width="20" height="20" viewBox="0 0 20 20" fill="none" xmlns="http://www.w3.org/2000/svg">
<path d="M19.9861 6.64578C19.9807 6.57604 19.9745 6.52258 19.969 6.48587C19.6892 3.31742 17.3646 0.809509 14.3478 0.809509C12.6001 0.809509 11.0029 1.63656 9.95712 2.97734C8.93572 1.62754 7.39939 0.809509 5.6609 0.809509C2.65437 0.809509 0.33519 3.30043 0.0365841 6.50388C0.0308439 6.54121 0.0250647 6.58666 0.0197931 6.64012C-0.0312436 7.15767 0.0112024 7.84344 0.208438 8.67901C0.627509 10.4543 1.60748 12.0712 2.98965 13.3242L9.42598 18.9831C9.73946 19.2588 10.2086 19.2598 10.5233 18.9855L17.0068 13.3358C18.535 11.7455 19.4432 10.3148 19.8033 8.66624C19.984 7.83833 20.0261 7.15704 19.9861 6.64578ZM18.1756 8.3109C17.8924 9.60747 17.1388 10.7945 15.858 12.1315L9.97871 17.2506L4.09918 12.0814C2.97141 11.0589 2.16994 9.73645 1.82994 8.29625C1.67558 7.6423 1.64457 7.14099 1.68144 6.76749L1.69319 6.68369C1.90749 4.27134 3.5721 2.4756 5.6609 2.4756C7.21594 2.4756 8.53895 3.42398 9.18192 4.94716C9.46846 5.6259 10.4303 5.6259 10.7169 4.94716C11.3469 3.45452 12.7638 2.4756 14.3478 2.4756C16.4367 2.4756 18.1012 4.27146 18.3155 6.68451C18.3213 6.73301 18.3229 6.74645 18.3251 6.77562C18.3526 7.12803 18.3207 7.64621 18.1756 8.3109Z" fill="#FF2E2E"/>
</svg>
