<svg width="200" height="40" viewBox="0 0 200 40" fill="none" xmlns="http://www.w3.org/2000/svg">
<g clip-path="url(#clip0)">
<path fill-rule="evenodd" clip-rule="evenodd" d="M6.07834 4.90994C2.97085 4.98878 0.687707 7.85395 1.3046 10.9006L5.72278 32.7207C6.18884 35.0224 8.19393 36.6895 10.542 36.7277L175.498 39.4104C177.363 39.4407 179.09 38.4298 179.978 36.7885L195.76 7.58829C197.587 4.20755 195.076 0.115019 191.235 0.212484L6.07834 4.90994Z" fill="#2E60FF"/>
<path fill-rule="evenodd" clip-rule="evenodd" d="M15.4469 30.1801H12.6366V12.283H21.5112V30.1801H18.6495V14.8425H15.4533V30.1801H15.4469ZM27.6913 12.283C29.106 12.283 30.1607 12.656 30.8488 13.4084C31.5369 14.1608 31.8842 15.2605 31.8842 16.7074V19.0354C31.8842 20.4824 31.5369 21.582 30.8488 22.3345C30.1607 23.0869 29.106 23.4599 27.6913 23.4599H26.3601V30.1865H23.5498V12.283H27.6913ZM26.3601 14.8425V20.9004H27.6913C28.135 20.9004 28.4758 20.7782 28.7138 20.5402C28.9517 20.3023 29.0739 19.8586 29.0739 19.209V16.5274C29.0739 15.8779 28.9517 15.4341 28.7138 15.1962C28.4758 14.9582 28.135 14.8361 27.6913 14.8361H26.3601V14.8425ZM35.7684 26.0643C35.7684 26.7139 35.9035 27.1705 36.1671 27.4341C36.4308 27.6978 36.7845 27.8328 37.2282 27.8328C37.672 27.8328 38.0257 27.6978 38.2893 27.4341C38.553 27.1705 38.688 26.7139 38.688 26.0643V16.3988C38.688 15.7492 38.553 15.2926 38.2893 15.029C38.0257 14.7653 37.672 14.6303 37.2282 14.6303C36.7845 14.6303 36.4308 14.7653 36.1671 15.029C35.9035 15.2926 35.7684 15.7492 35.7684 16.3988V26.0643ZM32.9581 16.5788C32.9581 15.1319 33.3247 14.0193 34.0578 13.2412C34.7909 12.4631 35.8456 12.0772 37.2282 12.0772C38.6109 12.0772 39.6655 12.4631 40.3987 13.2412C41.1318 14.0193 41.4983 15.1319 41.4983 16.5788V25.8843C41.4983 27.3312 41.1318 28.4438 40.3987 29.2219C39.6655 30 38.6109 30.3859 37.2282 30.3859C35.8456 30.3859 34.7909 30 34.0578 29.2219C33.3247 28.4438 32.9581 27.3312 32.9581 25.8843V16.5788ZM46.1993 30.1801H43.3118V12.283H45.8199V23.6077L46.8424 19.6721L49.1446 12.283H52.2379V30.1801H49.7041V17.5756L48.553 21.9743L46.1993 30.1801ZM59.6527 16.6817C59.6527 15.8779 59.5176 15.3377 59.254 15.0611C58.9903 14.7782 58.6366 14.6367 58.1929 14.6367C57.7491 14.6367 57.389 14.7717 57.1189 15.0354C56.8488 15.2991 56.7073 15.7557 56.7073 16.4052V17.865H54.1221V16.5338C54.1221 15.0869 54.4694 13.9807 55.1575 13.2219C55.8456 12.4631 56.881 12.0836 58.2636 12.0836C59.6462 12.0836 60.688 12.4695 61.3954 13.2476C62.1028 14.0258 62.4565 15.1383 62.4565 16.5853V17.0483C62.4565 18.9582 61.8006 20.1865 60.4887 20.7332C61.2025 21.0418 61.7105 21.5113 62.0128 22.1544C62.3086 22.791 62.463 23.5756 62.463 24.4952V25.9036C62.463 27.3505 62.1093 28.4631 61.4019 29.2412C60.6945 30.0193 59.6527 30.4052 58.27 30.4052C56.8874 30.4052 55.8456 30.0193 55.1382 29.2412C54.4308 28.4631 54.0771 27.3505 54.0771 25.9036V23.9357H56.7331V26.0836C56.7331 26.7332 56.8681 27.1897 57.1318 27.4534C57.3954 27.7171 57.7491 27.8521 58.1929 27.8521C58.6366 27.8521 58.9903 27.7171 59.254 27.4406C59.5176 27.1705 59.6527 26.6303 59.6527 25.8328V24.4245C59.6527 23.5885 59.5048 23.0032 59.2154 22.6624C58.926 22.3216 58.4565 22.148 57.807 22.148H57.1189V19.5885H57.9614C58.4887 19.5885 58.9003 19.4534 59.2025 19.1769C59.4983 18.9068 59.6527 18.4116 59.6527 17.6914V16.6817ZM68.598 12.283C70.0643 12.283 71.1253 12.6238 71.7813 13.3055C72.4372 13.9872 72.7652 15.0161 72.7652 16.3988V17.0354C72.7652 17.955 72.6173 18.7139 72.3279 19.3119C72.0385 19.91 71.5755 20.3537 70.9453 20.6431C71.7106 20.9325 72.2507 21.4084 72.5659 22.0643C72.881 22.7203 73.0417 23.5242 73.0417 24.4824V25.9422C73.0417 27.3248 72.6816 28.373 71.9678 29.0997C71.254 29.8264 70.1864 30.1865 68.7716 30.1865H64.3472V12.283H68.598ZM67.1704 22.1287V27.627H68.7781C69.254 27.627 69.6205 27.4984 69.8649 27.2412C70.1093 26.984 70.2379 26.5274 70.2379 25.8586V24.2959C70.2379 23.4598 70.0964 22.8875 69.8134 22.5852C69.5305 22.2766 69.0675 22.1222 68.4179 22.1222H67.1704V22.1287ZM67.1704 14.8425V19.5756H68.27C68.7974 19.5756 69.2089 19.4405 69.5112 19.164C69.807 18.8939 69.9614 18.3987 69.9614 17.6785V16.6817C69.9614 16.0322 69.8456 15.5627 69.6141 15.2734C69.3826 14.984 69.0224 14.8361 68.5273 14.8361H67.1704V14.8425ZM77.3183 26.0643C77.3183 26.7139 77.4533 27.1705 77.717 27.4341C77.9807 27.6978 78.3344 27.8328 78.7781 27.8328C79.2218 27.8328 79.5755 27.6978 79.8392 27.4341C80.1028 27.1705 80.2379 26.7139 80.2379 26.0643V16.3988C80.2379 15.7492 80.1028 15.2926 79.8392 15.029C79.5755 14.7653 79.2218 14.6303 78.7781 14.6303C78.3344 14.6303 77.9807 14.7653 77.717 15.029C77.4533 15.2926 77.3183 15.7492 77.3183 16.3988V26.0643ZM74.508 16.5788C74.508 15.1319 74.8745 14.0193 75.6077 13.2412C76.3408 12.4631 77.3954 12.0772 78.7781 12.0772C80.1607 12.0772 81.2154 12.4631 81.9485 13.2412C82.6816 14.0193 83.0482 15.1319 83.0482 16.5788V25.8843C83.0482 27.3312 82.6816 28.4438 81.9485 29.2219C81.2154 30 80.1607 30.3859 78.7781 30.3859C77.3954 30.3859 76.3408 30 75.6077 29.2219C74.8745 28.4438 74.508 27.3312 74.508 25.8843V16.5788ZM92.9903 32.5853V30.1801H86.9839V32.5853H84.2443V27.6785H85.344C85.5819 27.3698 85.7491 27.0418 85.8456 26.6817C85.9421 26.3216 86.0064 25.8779 86.0385 25.3505L86.6752 12.283H94.553V27.6721H95.7813V32.5788H92.9903V32.5853ZM88.7974 25.2991C88.7652 25.9807 88.6816 26.4952 88.553 26.8361C88.4244 27.1769 88.2443 27.4599 88.0064 27.6785H91.6848V14.8425H89.3054L88.7974 25.2991ZM100.225 30.1801H97.3376V12.283H99.8456V23.6077L100.868 19.6721L103.17 12.283H106.264V30.1801H103.73V17.5756L102.579 21.9743L100.225 30.1801ZM107.434 12.283H116.129V14.8425H113.19V30.1801H110.379V14.8425H107.44V12.283H107.434ZM120.167 19.8264H124.026V22.3859H120.167V27.627H125.022V30.1865H117.35V12.283H125.022V14.8425H120.167V19.8264ZM125.974 27.6528C126.296 27.6528 126.566 27.6335 126.778 27.6013C126.99 27.5692 127.164 27.4856 127.305 27.357C127.44 27.2283 127.537 27.0418 127.601 26.7975C127.659 26.5531 127.698 26.2251 127.717 25.8136L128.18 12.2894H136.129V30.1865H133.267V14.8489H130.81L130.502 25.6656C130.45 27.2991 130.103 28.4695 129.466 29.1704C128.83 29.8714 127.807 30.2187 126.412 30.2187H125.974V27.6528ZM138.27 30.1801V12.283H141.08V19.0097H142.412C143.826 19.0097 144.881 19.3827 145.569 20.1351C146.257 20.8875 146.604 21.9872 146.604 23.4341V25.7621C146.604 27.209 146.257 28.3087 145.569 29.0611C144.881 29.8135 143.826 30.1865 142.412 30.1865H138.27V30.1801ZM142.412 27.627C142.855 27.627 143.196 27.5049 143.434 27.2669C143.672 27.029 143.794 26.5852 143.794 25.9357V23.2541C143.794 22.6045 143.672 22.1608 143.434 21.9229C143.196 21.6849 142.855 21.5627 142.412 21.5627H141.08V27.6206H142.412V27.627ZM151.003 27.4727V30.1801H148.296V27.4727H151.003ZM157.19 12.283C158.604 12.283 159.659 12.656 160.347 13.4084C161.035 14.1608 161.383 15.2605 161.383 16.7074V19.0354C161.383 20.4824 161.035 21.582 160.347 22.3345C159.659 23.0869 158.604 23.4599 157.19 23.4599H155.858V30.1865H153.048V12.283H157.19ZM155.858 14.8425V20.9004H157.19C157.633 20.9004 157.974 20.7782 158.212 20.5402C158.45 20.3023 158.572 19.8586 158.572 19.209V16.5274C158.572 15.8779 158.45 15.4341 158.212 15.1962C157.974 14.9582 157.633 14.8361 157.19 14.8361H155.858V14.8425ZM167.698 28.1608H166.649C165.235 28.1608 164.18 27.7878 163.492 27.0354C162.804 26.283 162.457 25.1833 162.457 23.7364V18.8553C162.457 17.4084 162.804 16.3087 163.492 15.5563C164.18 14.8039 165.235 14.4309 166.649 14.4309H167.698V12.283H170.457V14.4309H171.505C172.92 14.4309 173.974 14.8039 174.662 15.5563C175.35 16.3087 175.698 17.4084 175.698 18.8553V23.7364C175.698 25.1833 175.35 26.283 174.662 27.0354C173.974 27.7878 172.92 28.1608 171.505 28.1608H170.457V30.1801H167.698V28.1608ZM170.463 16.9132V25.7107H171.511C171.955 25.7107 172.302 25.5756 172.547 25.2991C172.791 25.029 172.92 24.566 172.92 23.9164V18.6753C172.92 18.0258 172.797 17.5692 172.547 17.3055C172.302 17.0418 171.955 16.9068 171.511 16.9068H170.463V16.9132ZM167.698 16.9132H166.649C166.206 16.9132 165.858 17.0483 165.614 17.3119C165.37 17.5756 165.241 18.0322 165.241 18.6817V23.9229C165.241 24.5724 165.363 25.029 165.614 25.3055C165.858 25.5756 166.206 25.7171 166.649 25.7171H167.698V16.9132Z" fill="white"/>
<path fill-rule="evenodd" clip-rule="evenodd" d="M174.475 7.0509C173.351 6.79465 173.482 5.15287 174.632 5.078L191.199 4.00031C191.98 3.94954 192.514 4.77396 192.148 5.46543L186.409 16.3269C185.963 17.1697 184.703 16.9706 184.539 16.0315L183.439 9.7229C183.37 9.32588 183.069 9.00923 182.676 8.91969L174.475 7.0509Z" fill="#FF5454"/>
</g>
<defs>
<clipPath id="clip0">
<rect width="200" height="39.2283" fill="white"/>
</clipPath>
</defs>
</svg>
