<svg width="20" height="18" viewBox="0 0 20 18" fill="none" xmlns="http://www.w3.org/2000/svg">
<path d="M17.6562 0.875H2.34375C1.05141 0.875 0 1.92641 0 3.21875V5.15215L8.60121 11.5498C9.01953 11.861 9.50977 12.0166 10 12.0166C10.4902 12.0166 10.9805 11.861 11.3988 11.5498L20 5.15215V3.21875C20 1.92641 18.9486 0.875 17.6562 0.875ZM18.4375 4.36703L10.4663 10.2961C10.1874 10.5036 9.81262 10.5036 9.53375 10.2961L1.5625 4.36703V3.21875C1.5625 2.78797 1.91297 2.4375 2.34375 2.4375H17.6562C18.087 2.4375 18.4375 2.78797 18.4375 3.21875V4.36703ZM18.4375 8.26168L20 7.09949V14.7812C20 16.0736 18.9486 17.125 17.6562 17.125H2.34375C1.05141 17.125 0 16.0736 0 14.7812V7.09949L1.5625 8.26168V14.7812C1.5625 15.212 1.91297 15.5625 2.34375 15.5625H17.6562C18.087 15.5625 18.4375 15.212 18.4375 14.7812V8.26168Z" fill="#FF2E2E"/>
</svg>
