<svg width="20" height="16" viewBox="0 0 20 16" fill="none" xmlns="http://www.w3.org/2000/svg">
<path d="M1.21704 15.3746H17.4402C18.1116 15.3746 18.6572 14.8289 18.6572 14.1575V11.4111H12.8337C12.3976 11.4111 11.9716 11.3259 11.572 11.1555C11.1866 10.9932 10.8398 10.7579 10.5436 10.4618C10.2475 10.1657 10.0122 9.8188 9.8499 9.4334C9.68154 9.03381 9.59432 8.60784 9.59432 8.17174V7.82894C9.59432 7.39283 9.67951 6.96687 9.8499 6.56728C10.0122 6.18188 10.2475 5.83502 10.5436 5.53888C10.8398 5.24273 11.1866 5.00744 11.572 4.84517C11.9716 4.67681 12.3976 4.58959 12.8337 4.58959H18.6572V1.84314C18.6572 1.17174 18.1116 0.626099 17.4402 0.626099H1.21704C0.545639 0.626099 0 1.17174 0 1.84314V14.1575C0 14.8289 0.545639 15.3746 1.21704 15.3746Z" fill="#B7BCC6"/>
<path d="M20 6.71943C20 6.21435 19.5923 5.80664 19.0873 5.80664H18.6572H12.8337C11.716 5.80664 10.8114 6.71131 10.8114 7.82897V8.17177C10.8114 9.28942 11.7161 10.1941 12.8337 10.1941H18.6572H19.0873C19.5923 10.1941 20 9.78636 20 9.28129V6.71943ZM13.1643 9.07441C12.57 9.07441 12.0893 8.5937 12.0893 7.99935C12.0893 7.40503 12.57 6.9243 13.1643 6.9243C13.7587 6.9243 14.2394 7.40503 14.2394 7.99935C14.2394 8.5937 13.7587 9.07441 13.1643 9.07441Z" fill="#B7BCC6"/>
</svg>
