<svg width="20" height="20" viewBox="0 0 20 20" fill="none" xmlns="http://www.w3.org/2000/svg">
<path d="M12.8909 5.85938C12.137 5.85938 11.5237 5.24605 11.5237 4.49219V0H4.53149C3.34685 0 2.38306 0.963789 2.38306 2.14844V17.8516C2.38306 19.0362 3.34685 20 4.53149 20H15.469C16.6536 20 17.6174 19.0362 17.6174 17.8516V5.85938H12.8909ZM5.58618 14.0625H8.42681C8.7504 14.0625 9.01274 14.3248 9.01274 14.6484C9.01274 14.972 8.7504 15.2344 8.42681 15.2344H5.58618C5.26259 15.2344 5.00024 14.972 5.00024 14.6484C5.00024 14.3248 5.26259 14.0625 5.58618 14.0625ZM5.00024 11.5234C5.00024 11.1998 5.26259 10.9375 5.58618 10.9375H14.1799C14.5035 10.9375 14.7659 11.1998 14.7659 11.5234C14.7659 11.847 14.5035 12.1094 14.1799 12.1094H5.58618C5.26259 12.1094 5.00024 11.847 5.00024 11.5234ZM14.1799 7.8125C14.5035 7.8125 14.7659 8.07484 14.7659 8.39844C14.7659 8.72203 14.5035 8.98438 14.1799 8.98438H5.58618C5.26259 8.98438 5.00024 8.72203 5.00024 8.39844C5.00024 8.07484 5.26259 7.8125 5.58618 7.8125H14.1799Z" fill="#B7BCC6" fill-opacity="0.5"/>
<path d="M12.6956 4.49218C12.6956 4.59987 12.7832 4.68749 12.8909 4.68749H17.3563C17.2491 4.4896 17.1112 4.30784 16.9455 4.15108L13.179 0.587723C13.0328 0.449441 12.87 0.33409 12.6956 0.242996V4.49218H12.6956Z" fill="#B7BCC6" fill-opacity="0.5"/>
</svg>
