<svg width="219" height="213" viewBox="0 0 219 213" fill="none" xmlns="http://www.w3.org/2000/svg">
<g id="Iconly/Bold/Activity" opacity="0.3">
<g id="Activity">
<path id="Activity_2" fill-rule="evenodd" clip-rule="evenodd" d="M183.788 55.9621C181.735 42.2611 191.192 29.4675 204.894 27.4137C218.595 25.3598 231.388 34.8176 233.442 48.5187C235.496 62.2198 226.038 75.0133 212.337 77.0672C198.636 79.1211 185.842 69.6632 183.788 55.9621ZM160.11 168.521L184.123 125.644L183.742 125.912C185.05 123.398 184.927 120.467 183.408 118.062C181.899 115.655 179.153 114.276 176.454 114.47C173.616 114.579 171.031 116.231 169.712 118.746L149.626 154.725L117.714 136.547C115.762 135.47 113.623 135.254 111.595 135.779C109.591 136.395 107.905 137.796 106.906 139.631L82.3705 183.872L81.8811 184.893C80.6224 188.442 82.0797 192.542 85.5115 194.356C87.0927 195.066 88.7306 195.453 90.4818 195.19C92.8769 194.937 94.9461 193.352 96.0965 191.189L116.964 154.028L149.63 171.683L150.648 172.152C154.207 173.409 158.205 171.977 160.11 168.521ZM164.997 52.1465C164.971 54.7836 165.151 57.3899 165.537 59.9653C169.011 83.1438 190.569 99.0718 213.645 95.6126C216.22 95.2265 218.648 94.5572 221.161 93.759L233.622 176.882C238.859 211.815 221.36 235.61 186.334 240.86L110.216 252.271C75.1805 257.523 51.4734 239.905 46.2368 204.973L34.8107 128.751C29.5601 93.7262 47.0438 69.8285 82.0794 64.5764L164.997 52.1465Z" fill="white"/>
</g>
</g>
</svg>
