<svg width="24" height="24" viewBox="0 0 24 24" fill="none" xmlns="http://www.w3.org/2000/svg">
<path d="M23.4316 20.5276L17.9139 15.0094C18.8514 13.5169 19.3955 11.7528 19.3955 9.8596C19.3955 4.50348 15.0535 0.162048 9.69755 0.162048C4.34163 0.162048 0 4.50348 0 9.8596C0 15.2159 4.34143 19.5569 9.69755 19.5569C11.7578 19.5569 13.6662 18.9128 15.2365 17.8183L20.6886 23.2708C21.0675 23.6493 21.5641 23.8378 22.0601 23.8378C22.5568 23.8378 23.0528 23.6493 23.4322 23.2708C24.1893 22.5129 24.1893 21.2853 23.4316 20.5276ZM9.69755 16.4151C6.07744 16.4151 3.14247 13.4803 3.14247 9.86C3.14247 6.23969 6.07744 3.30472 9.69755 3.30472C13.3179 3.30472 16.2526 6.23969 16.2526 9.86C16.2526 13.4803 13.3179 16.4151 9.69755 16.4151Z" fill="#14121F"/>
</svg>
