<svg width="16" height="16" viewBox="0 0 16 16" fill="none" xmlns="http://www.w3.org/2000/svg">
<path d="M7.37752 0.255761L1.59923 6.03392C1.43429 6.19886 1.34375 6.41869 1.34375 6.6531C1.34375 6.88776 1.43442 7.10747 1.59923 7.27241L2.12397 7.79702C2.28865 7.96183 2.50862 8.05263 2.74315 8.05263C2.97756 8.05263 3.20494 7.96183 3.36962 7.79702L6.74793 4.42613L6.74793 15.1356C6.74793 15.6185 7.12595 16 7.60893 16H8.35078C8.83377 16 9.2499 15.6185 9.2499 15.1356V4.38789L12.6471 7.79689C12.812 7.9617 13.026 8.0525 13.2605 8.0525C13.4948 8.0525 13.7119 7.9617 13.8767 7.79689L14.3998 7.27228C14.5647 7.10734 14.6546 6.88763 14.6546 6.65297C14.6546 6.41856 14.5635 6.19873 14.3986 6.03379L8.62044 0.255631C8.45498 0.0902996 8.2341 -0.00062561 7.99931 2.47955e-05C7.76373 -0.000495911 7.54272 0.0902996 7.37752 0.255761Z" fill="#4BD848"/>
</svg>
