<svg width="14" height="16" viewBox="0 0 14 16" fill="none" xmlns="http://www.w3.org/2000/svg">
<path d="M7.76423 15.9552C10.9738 15.5956 13.5461 13.0299 13.9121 9.82033C14.3926 5.62367 11.1307 2.05128 7.04191 2.00552V0.12291C7.04191 0.0183202 6.91118 -0.0372431 6.82293 0.0281254L2.94658 2.87492C2.88121 2.92395 2.88121 3.01873 2.94658 3.06776L6.82293 5.91456C6.91118 5.97993 7.04191 5.9211 7.04191 5.81977V3.94043C9.91485 3.98619 12.2158 6.43097 12.0197 9.35294C11.853 11.8664 9.80373 13.9059 7.29031 14.066C4.62655 14.236 2.36153 12.3337 1.95625 9.81706C1.88107 9.34967 1.47252 9.00976 1.00187 9.00976C0.416822 9.00976 -0.0407573 9.52944 0.0507585 10.1079C0.619464 13.6934 3.93037 16.3833 7.76423 15.9552Z" fill="#2E60FF"/>
</svg>
