<svg width="44" height="54" viewBox="0 0 44 54" fill="none" xmlns="http://www.w3.org/2000/svg">
<path fill-rule="evenodd" clip-rule="evenodd" d="M11.4888 14.61C11.4888 8.85014 16.2036 4.16492 21.9998 4.16492C27.7961 4.16492 32.5109 8.85014 32.5109 14.61C32.5109 20.3672 27.7961 25.0524 21.9998 25.0524C16.2036 25.0524 11.4888 20.3672 11.4888 14.61ZM7.63368 14.61C7.63368 22.4791 14.0793 28.8843 22.0008 28.8843C29.9223 28.8843 36.3652 22.4791 36.3652 14.61C36.3652 6.73818 29.9223 0.333008 22.0008 0.333008C14.0793 0.333008 7.63368 6.73818 7.63368 14.61ZM19.2749 53.6264C20.1685 53.653 21.0782 53.6664 22.0013 53.6664C31.1599 53.6664 43.3346 52.6504 43.3346 43.88C43.3346 34.0375 27.2769 34.0375 22.0013 34.0375C12.8427 34.0375 0.667969 35.0535 0.667969 43.8266C0.667969 46.4532 1.89698 49.9971 7.75224 51.9678C8.7639 52.3144 9.85338 51.7678 10.1969 50.7678C10.5377 49.7678 9.99828 48.6825 8.98931 48.3438C4.98294 46.9945 4.52139 45.1199 4.52139 43.8266C4.52139 39.8721 10.4035 37.8668 22.0013 37.8668C33.5991 37.8668 39.4812 39.8907 39.4812 43.88C39.4812 47.8319 33.5991 49.8345 22.0013 49.8345C21.1158 49.8345 20.2436 49.8238 19.3849 49.7998C18.3545 49.8078 17.4368 50.6025 17.4073 51.6584C17.3751 52.7171 18.2123 53.5997 19.2749 53.6264Z" fill="white"/>
</svg>
