<svg width="34" height="34" viewBox="0 0 34 34" fill="none" xmlns="http://www.w3.org/2000/svg">
<rect width="34" height="34" rx="17" fill="#B7BCC6" fill-opacity="0.5"/>
<path fill-rule="evenodd" clip-rule="evenodd" d="M13.0582 12.3539C13.0582 10.1939 14.8263 8.43698 16.9998 8.43698C19.1734 8.43698 20.9415 10.1939 20.9415 12.3539C20.9415 14.5128 19.1734 16.2698 16.9998 16.2698C14.8263 16.2698 13.0582 14.5128 13.0582 12.3539ZM11.6122 12.3539C11.6122 15.3048 14.0294 17.7067 16.9999 17.7067C19.9705 17.7067 22.3866 15.3048 22.3866 12.3539C22.3866 9.40194 19.9705 7 16.9999 7C14.0294 7 11.6122 9.40194 11.6122 12.3539ZM15.9776 26.985C16.3127 26.995 16.6538 27 17 27C20.4345 27 25 26.619 25 23.3301C25 19.6392 18.9784 19.6392 17 19.6392C13.5655 19.6392 9 20.0202 9 23.3101C9 24.2951 9.46088 25.6241 11.6566 26.363C12.036 26.493 12.4445 26.288 12.5733 25.9131C12.7011 25.5381 12.4989 25.1311 12.1205 25.0041C10.6181 24.4981 10.445 23.7951 10.445 23.3101C10.445 21.8272 12.6508 21.0752 17 21.0752C21.3492 21.0752 23.555 21.8342 23.555 23.3301C23.555 24.8121 21.3492 25.5631 17 25.5631C16.6679 25.5631 16.3409 25.5591 16.0189 25.5501C15.6325 25.5531 15.2883 25.8511 15.2772 26.247C15.2652 26.644 15.5791 26.975 15.9776 26.985Z" fill="white"/>
</svg>
